<mxfile host="app.diagrams.net" modified="2024-03-14T11:19:45.365Z" agent="Mozilla/5.0 (Windows NT 10.0; Win64; x64; rv:123.0) Gecko/20100101 Firefox/123.0" etag="QrRf2aMRNkjFGa4glY6t" version="24.0.2" type="github">
  <diagram id="C5RBs43oDa-KdzZeNtuy" name="Page-1">
    <mxGraphModel dx="2120" dy="1955" grid="0" gridSize="10" guides="1" tooltips="1" connect="1" arrows="1" fold="1" page="0" pageScale="1" pageWidth="827" pageHeight="1169" math="0" shadow="0">
      <root>
        <mxCell id="WIyWlLk6GJQsqaUBKTNV-0" />
        <mxCell id="WIyWlLk6GJQsqaUBKTNV-1" parent="WIyWlLk6GJQsqaUBKTNV-0" />
        <mxCell id="Z0-859JoU0TvKjbYaFMb-17" value="&lt;div&gt;&lt;font style=&quot;font-size: 24px;&quot;&gt;IntegrationDeclarationDgfipJobListener.beforeJob :&lt;/font&gt;&lt;/div&gt;&lt;div&gt;&lt;font style=&quot;font-size: 24px;&quot;&gt;&lt;br&gt;&lt;/font&gt;&lt;/div&gt;&lt;div&gt;&lt;font style=&quot;font-size: 18px;&quot;&gt;&lt;span style=&quot;line-height: 115%; font-family: &amp;quot;Arial&amp;quot;, sans-serif;&quot;&gt;consulte les tables &lt;b&gt;complement, origineDeclaration,&lt;br/&gt;parametreGenerique, parametreTraitement, rubrique&lt;/b&gt; &lt;/span&gt;&lt;/font&gt;&lt;/div&gt;&lt;div&gt;&lt;font size=&quot;3&quot;&gt;&lt;br&gt;&lt;/font&gt;&lt;/div&gt;&lt;div&gt;&lt;font size=&quot;3&quot;&gt;&lt;br&gt;&lt;/font&gt;&lt;/div&gt;" style="rounded=1;whiteSpace=wrap;html=1;fontSize=12;glass=0;strokeWidth=1;shadow=0;fillColor=#fff2cc;strokeColor=#d6b656;" parent="WIyWlLk6GJQsqaUBKTNV-1" vertex="1">
          <mxGeometry x="-116" y="-1132" width="593" height="172" as="geometry" />
        </mxCell>
        <mxCell id="fWSNl2cbkjF6wr-oGvCW-2" value="&lt;div&gt;&lt;font style=&quot;font-size: 24px;&quot;&gt;RecupererIdControleJournalAndIdTypeFormulaireTasklet :&lt;/font&gt;&lt;/div&gt;&lt;div&gt;&lt;font style=&quot;font-size: 24px;&quot;&gt;&lt;br&gt;&lt;/font&gt;&lt;/div&gt;&lt;div&gt;&lt;font style=&quot;font-size: 18px;&quot;&gt;&lt;span style=&quot;line-height: 115%; font-family: &amp;quot;Arial&amp;quot;, sans-serif;&quot;&gt;consulte les tables &lt;b&gt;controle_journal&lt;/b&gt; et &lt;b&gt;type_formulaire&lt;/b&gt;&lt;/span&gt;&lt;/font&gt;&lt;span style=&quot;font-size:10.0pt;mso-bidi-font-size:11.0pt;&lt;br/&gt;line-height:115%;font-family:&amp;quot;Arial&amp;quot;,sans-serif;mso-fareast-font-family:Calibri;&lt;br/&gt;mso-bidi-font-family:Calibri;mso-ansi-language:FR;mso-fareast-language:EN-US;&lt;br/&gt;mso-bidi-language:AR-SA&quot;&gt;&lt;br&gt;&lt;/span&gt;&lt;/div&gt;" style="rounded=1;whiteSpace=wrap;html=1;fontSize=12;glass=0;strokeWidth=1;shadow=0;fillColor=#d5e8d4;strokeColor=#d6b656;" vertex="1" parent="WIyWlLk6GJQsqaUBKTNV-1">
          <mxGeometry x="-154.75" y="-918" width="670.5" height="132" as="geometry" />
        </mxCell>
        <mxCell id="fWSNl2cbkjF6wr-oGvCW-3" value="&lt;div&gt;&lt;font style=&quot;font-size: 24px;&quot;&gt;IntegrationDeclarationDgfipType99Reader :&lt;br&gt;&lt;/font&gt;&lt;/div&gt;&lt;div&gt;&lt;font style=&quot;font-size: 18px;&quot;&gt;&lt;br&gt;&lt;/font&gt;&lt;/div&gt;&lt;div&gt;&lt;font size=&quot;3&quot;&gt;consulte la table &lt;b&gt;pam_dgfip&lt;/b&gt;, retourne un Type99ResponseDto&lt;br&gt;&lt;/font&gt;&lt;/div&gt;" style="rounded=1;whiteSpace=wrap;html=1;fontSize=12;glass=0;strokeWidth=1;shadow=0;fillColor=#dae8fc;strokeColor=#d6b656;" vertex="1" parent="WIyWlLk6GJQsqaUBKTNV-1">
          <mxGeometry x="-90" y="-522" width="593" height="132" as="geometry" />
        </mxCell>
        <mxCell id="fWSNl2cbkjF6wr-oGvCW-4" value="&lt;div&gt;&lt;font style=&quot;font-size: 24px;&quot;&gt;IntegrationDeclarationDgfipType99Processor :&lt;/font&gt;&lt;/div&gt;&lt;div&gt;&lt;font style=&quot;font-size: 24px;&quot;&gt;&lt;br&gt;&lt;/font&gt;&lt;/div&gt;&lt;div&gt;&lt;font style=&quot;font-size: 18px;&quot;&gt;prend un Type99ResponseDto, retourne un Type99Dto&lt;/font&gt;&lt;font style=&quot;font-size: 24px;&quot;&gt; &lt;br&gt;&lt;/font&gt;&lt;/div&gt;&lt;div&gt;&lt;font size=&quot;3&quot;&gt;&lt;br&gt;&lt;/font&gt;&lt;/div&gt;&lt;div&gt;&lt;font size=&quot;3&quot;&gt;&lt;br&gt;&lt;/font&gt;&lt;/div&gt;" style="rounded=1;whiteSpace=wrap;html=1;fontSize=12;glass=0;strokeWidth=1;shadow=0;fillColor=#dae8fc;strokeColor=#d6b656;" vertex="1" parent="WIyWlLk6GJQsqaUBKTNV-1">
          <mxGeometry x="607" y="-528" width="593" height="132" as="geometry" />
        </mxCell>
        <mxCell id="fWSNl2cbkjF6wr-oGvCW-5" value="&lt;div&gt;&lt;font style=&quot;font-size: 24px;&quot;&gt;IntegrationDeclarationDgfipType99Writer :&lt;br&gt;&lt;/font&gt;&lt;/div&gt;&lt;div&gt;&lt;font size=&quot;3&quot;&gt;&lt;br&gt;&lt;/font&gt;&lt;/div&gt;&lt;font size=&quot;3&quot;&gt;&lt;span style=&quot;font-family: &amp;quot;Arial&amp;quot;, sans-serif;&quot;&gt;ajoute des lignes dans les tables &lt;b&gt;declarant,&lt;br&gt;complement_declarant, declaration, declarant_dgfip_pam,&lt;br&gt;activite_declarant_dgfip_pam, element&lt;/b&gt;, et supprime des lignes dans les&lt;br&gt;tables &lt;b&gt;pam_dgfip, activite_pam_dgfip&lt;/b&gt; et &lt;b&gt;champs_pam_dgfip&lt;/b&gt;&lt;/span&gt;&lt;/font&gt;" style="rounded=1;whiteSpace=wrap;html=1;fontSize=12;glass=0;strokeWidth=1;shadow=0;fillColor=#dae8fc;strokeColor=#d6b656;" vertex="1" parent="WIyWlLk6GJQsqaUBKTNV-1">
          <mxGeometry x="1309" y="-546" width="593" height="168" as="geometry" />
        </mxCell>
        <mxCell id="fWSNl2cbkjF6wr-oGvCW-6" value="" style="endArrow=none;html=1;rounded=0;" edge="1" parent="WIyWlLk6GJQsqaUBKTNV-1">
          <mxGeometry width="50" height="50" relative="1" as="geometry">
            <mxPoint x="-150" y="-593" as="sourcePoint" />
            <mxPoint x="1957" y="-593" as="targetPoint" />
          </mxGeometry>
        </mxCell>
        <mxCell id="fWSNl2cbkjF6wr-oGvCW-7" value="" style="endArrow=none;html=1;rounded=0;" edge="1" parent="WIyWlLk6GJQsqaUBKTNV-1">
          <mxGeometry width="50" height="50" relative="1" as="geometry">
            <mxPoint x="-150" y="-327" as="sourcePoint" />
            <mxPoint x="1957" y="-327" as="targetPoint" />
          </mxGeometry>
        </mxCell>
        <mxCell id="fWSNl2cbkjF6wr-oGvCW-8" value="" style="endArrow=none;html=1;rounded=0;" edge="1" parent="WIyWlLk6GJQsqaUBKTNV-1">
          <mxGeometry width="50" height="50" relative="1" as="geometry">
            <mxPoint x="1960" y="-322" as="sourcePoint" />
            <mxPoint x="1955" y="-596" as="targetPoint" />
          </mxGeometry>
        </mxCell>
        <mxCell id="fWSNl2cbkjF6wr-oGvCW-9" value="" style="endArrow=none;html=1;rounded=0;" edge="1" parent="WIyWlLk6GJQsqaUBKTNV-1">
          <mxGeometry width="50" height="50" relative="1" as="geometry">
            <mxPoint x="-148" y="-319" as="sourcePoint" />
            <mxPoint x="-153" y="-593" as="targetPoint" />
          </mxGeometry>
        </mxCell>
        <mxCell id="fWSNl2cbkjF6wr-oGvCW-11" value="&lt;font style=&quot;font-size: 24px;&quot;&gt;&amp;nbsp;&lt;/font&gt;&lt;div&gt;&lt;font style=&quot;font-size: 24px;&quot;&gt;&amp;nbsp;&lt;/font&gt;&lt;font style=&quot;font-size: 36px;&quot;&gt;&lt;b&gt;Batch IntegrationDeclarationDgfipType99 :&lt;br&gt;&lt;/b&gt;&lt;/font&gt;&lt;/div&gt;&lt;div&gt;&lt;font size=&quot;3&quot;&gt;&lt;b&gt;&lt;br&gt;&lt;/b&gt;&lt;/font&gt;&lt;/div&gt;&lt;div&gt;&lt;font size=&quot;3&quot;&gt;&lt;br&gt;&lt;/font&gt;&lt;/div&gt;" style="text;whiteSpace=wrap;html=1;" vertex="1" parent="WIyWlLk6GJQsqaUBKTNV-1">
          <mxGeometry x="-151" y="-685" width="882" height="89" as="geometry" />
        </mxCell>
        <mxCell id="fWSNl2cbkjF6wr-oGvCW-21" value="&lt;div&gt;&lt;font style=&quot;font-size: 24px;&quot;&gt;IntegrationDeclarationDgfipTypeIdReader :&lt;/font&gt;&lt;/div&gt;&lt;div&gt;&lt;font style=&quot;font-size: 18px;&quot;&gt;consulte les tables &lt;b&gt;activite_pam, campagne, declarant, pam_dgfip, selection&lt;/b&gt;&lt;br&gt;et les dictionnaires &lt;b&gt;activite_pam_dgfip, champs_pam_dgfip&lt;/b&gt; &lt;br&gt;retourne un&amp;nbsp; TypeIdResponseDto&lt;/font&gt;&lt;font style=&quot;font-size: 24px;&quot;&gt; &lt;br&gt;&lt;/font&gt;&lt;/div&gt;&lt;div&gt;&lt;font size=&quot;3&quot;&gt;&lt;br&gt;&lt;/font&gt;&lt;/div&gt;&lt;div&gt;&lt;font size=&quot;3&quot;&gt;&lt;br&gt;&lt;/font&gt;&lt;/div&gt;" style="rounded=1;whiteSpace=wrap;html=1;fontSize=12;glass=0;strokeWidth=1;shadow=0;fillColor=#dae8fc;strokeColor=#d6b656;" vertex="1" parent="WIyWlLk6GJQsqaUBKTNV-1">
          <mxGeometry x="-90" y="-143" width="593" height="155" as="geometry" />
        </mxCell>
        <mxCell id="fWSNl2cbkjF6wr-oGvCW-22" value="&lt;div&gt;&lt;font style=&quot;font-size: 24px;&quot;&gt;IntegrationDeclarationDgfipTypeIdProcessor :&lt;/font&gt;&lt;/div&gt;&lt;div&gt;&lt;font style=&quot;font-size: 18px;&quot;&gt;prend un TypeIdResponseDto&lt;br&gt;consulte les tables &lt;b&gt;activite_pam, declaration,origine_declaration, &lt;br&gt;type_declaration, dispositif&lt;/b&gt;&lt;br&gt;retourne un TypeIdProcessorDto&lt;/font&gt;&lt;font style=&quot;font-size: 24px;&quot;&gt; &lt;br&gt;&lt;/font&gt;&lt;/div&gt;&lt;div&gt;&lt;font size=&quot;3&quot;&gt;&lt;br&gt;&lt;/font&gt;&lt;/div&gt;&lt;div&gt;&lt;font size=&quot;3&quot;&gt;&lt;br&gt;&lt;/font&gt;&lt;/div&gt;" style="rounded=1;whiteSpace=wrap;html=1;fontSize=12;glass=0;strokeWidth=1;shadow=0;fillColor=#dae8fc;strokeColor=#d6b656;" vertex="1" parent="WIyWlLk6GJQsqaUBKTNV-1">
          <mxGeometry x="604" y="-152" width="593" height="173" as="geometry" />
        </mxCell>
        <mxCell id="fWSNl2cbkjF6wr-oGvCW-23" value="&lt;div&gt;&lt;font style=&quot;font-size: 24px;&quot;&gt;IntegrationDeclarationDgfipTypeIdWriter :&lt;br&gt;&lt;/font&gt;&lt;/div&gt;&lt;div&gt;&lt;font size=&quot;3&quot;&gt;&lt;br&gt;&lt;/font&gt;&lt;/div&gt;&lt;div&gt;&lt;font size=&quot;3&quot;&gt;prend une List&amp;lt;TypeIdProcessorDto &amp;gt; &lt;br&gt;consulte les tables &lt;b&gt;dispositif, origine_declaration, type_declaration&lt;/b&gt; &lt;br&gt;ajoute des lignes dans les tables &lt;b&gt;declaration, element, formulaire, journal&lt;/b&gt;&lt;br&gt;supprime des lignes dans les tables &lt;b&gt;activite_pam_dgfip, champs_pam_dgfip,&amp;nbsp; pam_dgfip&lt;/b&gt;&lt;br&gt;&lt;br&gt;&lt;/font&gt;&lt;/div&gt;" style="rounded=1;whiteSpace=wrap;html=1;fontSize=12;glass=0;strokeWidth=1;shadow=0;fillColor=#dae8fc;strokeColor=#d6b656;" vertex="1" parent="WIyWlLk6GJQsqaUBKTNV-1">
          <mxGeometry x="1298" y="-157.5" width="593" height="184" as="geometry" />
        </mxCell>
        <mxCell id="fWSNl2cbkjF6wr-oGvCW-24" value="" style="endArrow=none;html=1;rounded=0;" edge="1" parent="WIyWlLk6GJQsqaUBKTNV-1">
          <mxGeometry width="50" height="50" relative="1" as="geometry">
            <mxPoint x="-156" y="-193" as="sourcePoint" />
            <mxPoint x="1951" y="-193" as="targetPoint" />
          </mxGeometry>
        </mxCell>
        <mxCell id="fWSNl2cbkjF6wr-oGvCW-25" value="" style="endArrow=none;html=1;rounded=0;" edge="1" parent="WIyWlLk6GJQsqaUBKTNV-1">
          <mxGeometry width="50" height="50" relative="1" as="geometry">
            <mxPoint x="-156" y="73" as="sourcePoint" />
            <mxPoint x="1951" y="73" as="targetPoint" />
          </mxGeometry>
        </mxCell>
        <mxCell id="fWSNl2cbkjF6wr-oGvCW-26" value="" style="endArrow=none;html=1;rounded=0;" edge="1" parent="WIyWlLk6GJQsqaUBKTNV-1">
          <mxGeometry width="50" height="50" relative="1" as="geometry">
            <mxPoint x="1954" y="78" as="sourcePoint" />
            <mxPoint x="1949" y="-196" as="targetPoint" />
          </mxGeometry>
        </mxCell>
        <mxCell id="fWSNl2cbkjF6wr-oGvCW-27" value="" style="endArrow=none;html=1;rounded=0;" edge="1" parent="WIyWlLk6GJQsqaUBKTNV-1">
          <mxGeometry width="50" height="50" relative="1" as="geometry">
            <mxPoint x="-154" y="81" as="sourcePoint" />
            <mxPoint x="-159" y="-193" as="targetPoint" />
          </mxGeometry>
        </mxCell>
        <mxCell id="fWSNl2cbkjF6wr-oGvCW-28" value="&lt;font style=&quot;font-size: 24px;&quot;&gt;&amp;nbsp;&lt;/font&gt;&lt;div&gt;&lt;font style=&quot;font-size: 24px;&quot;&gt;&amp;nbsp;&lt;/font&gt;&lt;font style=&quot;font-size: 36px;&quot;&gt;&lt;b&gt;Batch IntegrationDeclarationDgfipTypeId :&lt;br&gt;&lt;/b&gt;&lt;/font&gt;&lt;/div&gt;&lt;div&gt;&lt;font size=&quot;3&quot;&gt;&lt;b&gt;&lt;br&gt;&lt;/b&gt;&lt;/font&gt;&lt;/div&gt;&lt;div&gt;&lt;font size=&quot;3&quot;&gt;&lt;br&gt;&lt;/font&gt;&lt;/div&gt;" style="text;whiteSpace=wrap;html=1;" vertex="1" parent="WIyWlLk6GJQsqaUBKTNV-1">
          <mxGeometry x="-157" y="-285" width="882" height="89" as="geometry" />
        </mxCell>
        <mxCell id="fWSNl2cbkjF6wr-oGvCW-29" value="&lt;div&gt;&lt;font style=&quot;font-size: 24px;&quot;&gt;IntegrationDeclarationDgfipByNirReader :&lt;/font&gt;&lt;/div&gt;&lt;div&gt;&lt;font style=&quot;font-size: 18px;&quot;&gt;consulte les tables&amp;nbsp; &lt;b&gt;activite_pam, declarant, &lt;br&gt;declarant_dgfip, pam_dgfip, selection.&lt;/b&gt;&lt;br&gt;retourne un IntegrationDeclarationByNirQueryResult&lt;font&gt;&lt;br&gt;&lt;/font&gt;&lt;/font&gt;&lt;/div&gt;&lt;div&gt;&lt;font size=&quot;3&quot;&gt;&lt;br&gt;&lt;/font&gt;&lt;/div&gt;&lt;div&gt;&lt;font size=&quot;3&quot;&gt;&lt;br&gt;&lt;/font&gt;&lt;/div&gt;" style="rounded=1;whiteSpace=wrap;html=1;fontSize=12;glass=0;strokeWidth=1;shadow=0;fillColor=#dae8fc;strokeColor=#d6b656;" vertex="1" parent="WIyWlLk6GJQsqaUBKTNV-1">
          <mxGeometry x="-101" y="237" width="593" height="160" as="geometry" />
        </mxCell>
        <mxCell id="fWSNl2cbkjF6wr-oGvCW-30" value="&lt;div&gt;&lt;font style=&quot;font-size: 24px;&quot;&gt;IntegrationDeclarationDgfipByNirProcessor :&lt;br&gt;&lt;/font&gt;&lt;/div&gt;&lt;div&gt;&lt;font size=&quot;3&quot;&gt;&lt;br&gt;&lt;/font&gt;&lt;/div&gt;&lt;div&gt;&lt;font size=&quot;3&quot;&gt;&lt;br&gt;&lt;/font&gt;&lt;/div&gt;" style="rounded=1;whiteSpace=wrap;html=1;fontSize=12;glass=0;strokeWidth=1;shadow=0;fillColor=#dae8fc;strokeColor=#d6b656;" vertex="1" parent="WIyWlLk6GJQsqaUBKTNV-1">
          <mxGeometry x="590" y="231.5" width="593" height="167" as="geometry" />
        </mxCell>
        <mxCell id="fWSNl2cbkjF6wr-oGvCW-31" value="&lt;div&gt;&lt;font style=&quot;font-size: 24px;&quot;&gt;IntegrationDeclarationDgfipByNirGeneralWriter :&lt;br&gt;&lt;/font&gt;&lt;/div&gt;&lt;div&gt;&lt;font size=&quot;3&quot;&gt;&lt;br&gt;&lt;/font&gt;&lt;/div&gt;&lt;div&gt;&lt;font size=&quot;3&quot;&gt;&lt;br&gt;&lt;/font&gt;&lt;/div&gt;" style="rounded=1;whiteSpace=wrap;html=1;fontSize=12;glass=0;strokeWidth=1;shadow=0;fillColor=#dae8fc;strokeColor=#d6b656;" vertex="1" parent="WIyWlLk6GJQsqaUBKTNV-1">
          <mxGeometry x="1288" y="249" width="593" height="132" as="geometry" />
        </mxCell>
        <mxCell id="fWSNl2cbkjF6wr-oGvCW-32" value="" style="endArrow=none;html=1;rounded=0;" edge="1" parent="WIyWlLk6GJQsqaUBKTNV-1">
          <mxGeometry width="50" height="50" relative="1" as="geometry">
            <mxPoint x="-166" y="191" as="sourcePoint" />
            <mxPoint x="1941" y="191" as="targetPoint" />
          </mxGeometry>
        </mxCell>
        <mxCell id="fWSNl2cbkjF6wr-oGvCW-33" value="" style="endArrow=none;html=1;rounded=0;" edge="1" parent="WIyWlLk6GJQsqaUBKTNV-1">
          <mxGeometry width="50" height="50" relative="1" as="geometry">
            <mxPoint x="-166" y="457" as="sourcePoint" />
            <mxPoint x="1941" y="457" as="targetPoint" />
          </mxGeometry>
        </mxCell>
        <mxCell id="fWSNl2cbkjF6wr-oGvCW-34" value="" style="endArrow=none;html=1;rounded=0;" edge="1" parent="WIyWlLk6GJQsqaUBKTNV-1">
          <mxGeometry width="50" height="50" relative="1" as="geometry">
            <mxPoint x="1944" y="462" as="sourcePoint" />
            <mxPoint x="1939" y="188" as="targetPoint" />
          </mxGeometry>
        </mxCell>
        <mxCell id="fWSNl2cbkjF6wr-oGvCW-35" value="" style="endArrow=none;html=1;rounded=0;" edge="1" parent="WIyWlLk6GJQsqaUBKTNV-1">
          <mxGeometry width="50" height="50" relative="1" as="geometry">
            <mxPoint x="-164" y="465" as="sourcePoint" />
            <mxPoint x="-169" y="191" as="targetPoint" />
          </mxGeometry>
        </mxCell>
        <mxCell id="fWSNl2cbkjF6wr-oGvCW-36" value="&lt;font style=&quot;font-size: 24px;&quot;&gt;&amp;nbsp;&lt;/font&gt;&lt;div&gt;&lt;font style=&quot;font-size: 24px;&quot;&gt;&amp;nbsp;&lt;/font&gt;&lt;font style=&quot;font-size: 36px;&quot;&gt;&lt;b&gt;Batch IntegrationDeclarationDgfipByNir :&lt;br&gt;&lt;/b&gt;&lt;/font&gt;&lt;/div&gt;&lt;div&gt;&lt;font size=&quot;3&quot;&gt;&lt;b&gt;&lt;br&gt;&lt;/b&gt;&lt;/font&gt;&lt;/div&gt;&lt;div&gt;&lt;font size=&quot;3&quot;&gt;&lt;br&gt;&lt;/font&gt;&lt;/div&gt;" style="text;whiteSpace=wrap;html=1;" vertex="1" parent="WIyWlLk6GJQsqaUBKTNV-1">
          <mxGeometry x="-167" y="99" width="882" height="89" as="geometry" />
        </mxCell>
        <mxCell id="fWSNl2cbkjF6wr-oGvCW-37" value="&lt;div&gt;&lt;font style=&quot;font-size: 24px;&quot;&gt;IntegrationDeclarationDgfipJobListener.afterJob :&lt;/font&gt;&lt;/div&gt;&lt;div&gt;&lt;font style=&quot;font-size: 24px;&quot;&gt;&lt;br&gt;&lt;/font&gt;&lt;/div&gt;&lt;div&gt;&lt;font style=&quot;font-size: 18px;&quot;&gt;met à jour &lt;b&gt;nir_type_99_declarant_seq&lt;/b&gt; et &lt;b&gt;pam_dgfip&lt;/b&gt; &lt;br&gt;&lt;/font&gt;&lt;/div&gt;&lt;div&gt;&lt;font size=&quot;3&quot;&gt;loggue le bilan, envoie un mail&lt;br&gt;&lt;/font&gt;&lt;/div&gt;&lt;div&gt;&lt;font size=&quot;3&quot;&gt;&lt;br&gt;&lt;/font&gt;&lt;/div&gt;&lt;div&gt;&lt;font size=&quot;3&quot;&gt;&lt;br&gt;&lt;/font&gt;&lt;/div&gt;" style="rounded=1;whiteSpace=wrap;html=1;fontSize=12;glass=0;strokeWidth=1;shadow=0;fillColor=#fff2cc;strokeColor=#d6b656;" vertex="1" parent="WIyWlLk6GJQsqaUBKTNV-1">
          <mxGeometry x="-106" y="557" width="593" height="156" as="geometry" />
        </mxCell>
      </root>
    </mxGraphModel>
  </diagram>
</mxfile>
